<svg width="210" height="210" viewBox="0 0 210 210" fill="none" xmlns="http://www.w3.org/2000/svg">
    <path opacity="0.4" d="M197.84 119.618C194.833 115.929 191.402 112.563 187.738 109.527C182.134 104.883 175.298 99.6875 175.556 92.4131C175.827 84.7785 183.749 80.0026 187.643 73.4301C190.883 67.9609 191.237 61.1352 189.779 54.9476C188.321 48.7599 185.203 43.0965 181.819 37.7141C175.373 27.4571 166.375 17.0539 154.299 16.0891C138.73 14.8455 125.715 29.8241 110.096 29.8789C97.1459 29.9241 86.6398 19.8723 74.616 15.0622C61.2549 9.71727 45.0675 11.3475 33.6634 20.1246C18.9518 31.4474 14.3326 52.3974 18.0149 70.5925C19.0043 75.4812 20.5139 80.3294 20.4915 85.3173C20.4444 95.8019 9.67554 100.858 5.61625 109.464C1.62368 117.928 -0.153693 128.065 0.0103787 137.395C0.256258 151.436 5.77118 165.324 15.2256 175.708C19.9517 180.899 25.8135 185.321 32.6214 187.034C41.4716 189.259 50.7131 186.72 59.7215 185.26C79.7072 182.02 100.155 184.157 120.186 187.097C136.642 189.513 153.399 192.469 169.788 189.64C186.177 186.811 202.476 176.833 207.691 161.04C210.76 151.745 209.648 141.363 205.736 132.39C203.726 127.779 201.019 123.518 197.84 119.618Z" fill="url(#paint0_linear_1071_5306)"/>
    <path d="M128.744 85.8303C142.429 99.5155 145.716 117.889 152.691 117.321C153.672 117.084 154.498 116.65 155.145 116.003C158.916 112.231 151.909 93.909 136.287 78.2871C120.665 62.6652 102.343 55.6576 98.571 59.4292C97.9242 60.076 97.4905 60.902 97.2529 61.8826C96.6852 68.8581 115.059 72.1451 128.744 85.8303Z" fill="#C9C5C5"/>
    <path d="M130.622 83.93C118.906 72.2141 107.19 67.3244 102.542 65.7234C101.203 65.2633 99.9416 66.291 99.3495 67.3508C98.7574 68.4106 68.3936 138.616 68.3936 138.616C68.3936 138.616 66.3118 144.077 68.3936 146.159C70.4754 148.241 75.9365 146.159 75.9365 146.159L147.452 115.012C147.452 115.012 149.442 113.826 148.697 111.622C147.034 106.711 142.025 95.333 130.622 83.93Z" fill="#E7E7E7"/>
    <path d="M77.8228 136.766C81.9866 132.602 81.9885 125.845 77.8228 121.68C77.3438 121.201 76.8252 120.791 76.284 120.424L68.3938 138.652C68.3938 138.652 68.2637 139.05 68.1072 139.655C71.5092 140.36 75.1846 139.404 77.8228 136.766ZM96.6808 114.136C100.846 109.971 100.845 103.214 96.6808 99.0501C93.9916 96.3609 90.2276 95.4331 86.7728 96.2176L79.9538 111.945C80.4082 112.724 80.9287 113.471 81.5944 114.136C85.7582 118.3 92.5169 118.3 96.6808 114.136Z" fill="#BDBDBD"/>
    <path d="M109.868 97.1424C114.034 101.308 120.788 101.308 124.954 97.1424C129.12 92.9764 129.12 86.222 124.954 82.0561C120.788 77.8901 114.034 77.8901 109.868 82.0561C105.702 86.222 105.702 92.9764 109.868 97.1424Z" fill="#BDBDBD"/>
    <path d="M132.504 108.479C128.34 104.315 121.584 104.313 117.418 108.479C113.252 112.645 113.254 119.402 117.418 123.566C118.704 124.852 120.25 125.693 121.878 126.185L134.505 120.686C136.449 116.705 135.808 111.783 132.504 108.479ZM91.0168 127.337C87.4941 130.86 86.9869 136.225 89.4233 140.317L108.753 131.899C108.268 130.234 107.418 128.652 106.103 127.337C101.939 123.173 95.1806 123.173 91.0168 127.337ZM98.56 85.8496C102.726 81.6839 102.726 74.929 98.56 70.7633C98.3959 70.5992 98.2036 70.4823 98.0301 70.3314C96.4045 74.0314 93.4268 80.8749 89.9551 88.8726C93.0289 89.1781 96.2065 88.2031 98.56 85.8496Z" fill="#BDBDBD"/>
    <defs>
        <linearGradient id="paint0_linear_1071_5306" x1="118" y1="191" x2="111.862" y2="-6.80041" gradientUnits="userSpaceOnUse">
            <stop stop-color="white"/>
            <stop offset="1" stop-color="#EBEBEB"/>
        </linearGradient>
    </defs>
</svg>
