<svg width="210" height="210" viewBox="0 0 210 210" fill="none" xmlns="http://www.w3.org/2000/svg">
    <path opacity="0.4" d="M198.409 121.618C195.408 117.929 191.985 114.563 188.329 111.527C182.737 106.882 175.916 101.687 176.174 94.4129C176.444 86.7783 184.349 82.0024 188.234 75.4299C191.468 69.9607 191.82 63.1351 190.366 56.9474C188.911 50.7598 185.799 45.0963 182.423 39.7139C175.991 29.4569 167.013 19.0537 154.962 18.0889C139.427 16.8454 126.441 31.8239 110.856 31.8787C97.9334 31.924 87.4501 21.8722 75.4523 17.062C62.1202 11.7171 45.9679 13.3473 34.5885 22.1244C19.9087 33.4472 15.2996 54.3972 18.9739 72.5923C19.9612 77.4811 21.4675 82.3292 21.4451 87.3171C21.3982 97.8017 10.6526 102.857 6.60213 111.464C2.61821 119.928 0.844687 130.065 1.0084 139.395C1.25375 153.436 6.75672 167.324 16.1907 177.708C20.9065 182.899 26.7556 187.321 33.5487 189.033C42.3798 191.259 51.6013 188.719 60.5902 187.26C80.5325 184.02 100.936 186.156 120.924 189.097C137.343 191.513 154.064 194.469 170.418 191.64C186.772 188.811 203.036 178.833 208.239 163.04C211.302 153.745 210.191 143.363 206.289 134.39C204.283 129.778 201.582 125.518 198.409 121.618Z" fill="url(#paint0_linear_1071_5592)"/>
    <path d="M48.0264 121.461C48.0264 122.321 49.0752 123.017 50.3684 123.017C50.3684 123.017 123.95 123.017 128.248 123.017C136.278 123.017 138.737 135.786 138.737 135.786L140.626 128.104C140.626 128.104 136.072 119.902 130.955 119.902C125.838 119.902 50.3684 119.902 50.3684 119.902C49.0752 119.902 48.0264 120.6 48.0264 121.461Z" fill="#A7A5A6"/>
    <path d="M57.046 153.179H132.995C136.411 153.179 139.123 151.734 141.513 142.048C142.21 139.218 159.212 68.4638 162.686 54.3274L184.228 52.4837C186.277 52.276 187.464 53.211 187.255 51.1572C187.049 49.1034 185.217 47.6111 183.168 47.8147L162.387 49.9247C160.818 50.0839 159.518 51.2153 159.141 52.7513C159.141 52.7513 138.425 137.097 137.648 140.253C136.303 145.705 133.901 148.165 132.995 148.165H57.046C52.6068 148.165 53.3481 153.179 57.046 153.179Z" fill="#B6B5B5"/>
    <path d="M110.423 55.4307L110.322 54.8234C110.41 54.7935 110.499 54.7648 110.588 54.7372L110.465 55.4157C110.451 55.4211 110.437 55.4259 110.423 55.4307Z" fill="#A0D0ED"/>
    <path d="M65.3974 164.693C63.1725 164.693 61.3633 162.879 61.3633 160.649C61.3633 158.42 63.1725 156.605 65.3974 156.605C66.165 156.605 66.914 156.826 67.565 157.242L67.7305 157.348L67.8846 157.447L65.9213 159.384L65.7522 159.339C65.7421 159.336 65.7319 159.334 65.7224 159.331C65.5999 159.3 65.4954 159.285 65.3974 159.285C64.6472 159.285 64.0356 159.897 64.0356 160.649C64.0356 161.402 64.6472 162.014 65.3974 162.014C66.1476 162.014 66.7587 161.402 66.7587 160.649C66.7587 160.543 66.742 160.432 66.7061 160.302C66.7031 160.291 66.7001 160.281 66.6972 160.27L66.647 160.095L68.6007 158.167L68.7041 158.329L68.8026 158.484C69.2142 159.134 69.4328 159.884 69.4328 160.649C69.4328 162.879 67.623 164.693 65.3974 164.693ZM65.3974 157.212C63.5064 157.212 61.9689 158.755 61.9689 160.649C61.9689 162.545 63.5064 164.086 65.3974 164.086C67.2885 164.086 68.8271 162.545 68.8271 160.649C68.8271 160.126 68.7059 159.611 68.4759 159.143L67.3243 160.278C67.3512 160.408 67.3655 160.529 67.3655 160.649C67.3655 161.736 66.4833 162.62 65.3974 162.62C64.3121 162.62 63.4293 161.736 63.4293 160.649C63.4293 159.562 64.3121 158.678 65.3974 158.678C65.5067 158.678 65.619 158.688 65.7379 158.712L66.902 157.564C66.4344 157.334 65.9213 157.212 65.3974 157.212Z" fill="#A0D0ED"/>
    <path d="M82.8027 61.4277C82.7263 62.1167 83.2214 62.7362 83.9113 62.8129C84.5958 62.8877 85.2152 62.3909 85.2917 61.7043C85.3657 61.0153 84.8706 60.3957 84.1843 60.3191C83.4962 60.2437 82.878 60.7387 82.8027 61.4277Z" fill="#2D69A0"/>
    <path d="M53.9883 166.055C53.9883 171.436 58.3426 175.796 63.7099 175.796C69.0784 175.796 73.4303 171.436 73.4303 166.055C73.4303 160.673 69.0784 156.312 63.7099 156.312C58.3426 156.312 53.9883 160.673 53.9883 166.055Z" fill="#29242C"/>
    <path d="M57.7549 166.053C57.7549 169.344 60.417 172.012 63.7022 172.012C66.9867 172.012 69.6507 169.344 69.6507 166.053C69.6507 162.761 66.9867 160.093 63.7022 160.093C60.417 160.093 57.7549 162.761 57.7549 166.053Z" fill="#B9B7B8"/>
    <path d="M59.421 164.114C57.518 170.022 65.6383 172.861 68.0454 166.862C69.4747 163.296 74.4998 149.442 74.4998 149.442H55.627C55.627 149.442 61.9052 156.4 59.421 164.114Z" fill="#D3D2D2"/>
    <path d="M61.1436 165.321C61.1436 166.565 62.1506 167.576 63.3948 167.576C64.6377 167.576 65.6448 166.565 65.6448 165.321C65.6448 164.076 64.6377 163.065 63.3948 163.065C62.1506 163.065 61.1436 164.076 61.1436 165.321Z" fill="#9C9A9B"/>
    <path d="M113.83 166.055C113.83 171.436 118.183 175.796 123.552 175.796C128.92 175.796 133.272 171.436 133.272 166.055C133.272 160.673 128.92 156.312 123.552 156.312C118.183 156.312 113.83 160.673 113.83 166.055Z" fill="#29242C"/>
    <path d="M117.604 166.053C117.604 169.344 120.269 172.012 123.554 172.012C126.838 172.012 129.501 169.344 129.501 166.053C129.501 162.761 126.838 160.093 123.554 160.093C120.269 160.093 117.604 162.761 117.604 166.053Z" fill="#B9B7B8"/>
    <path d="M36.4002 63.0569H157.164C153.392 77.8177 146.015 106.687 145.175 109.969C144.041 114.405 141.629 117.63 137.256 117.63H54.7522C50.3782 117.63 48.4083 115.041 46.832 109.969C45.0103 104.112 39.3264 77.1401 36.4002 63.0569ZM33.6055 60.826C36.6606 76.0704 42.6002 105.269 44.5026 111.61C46.1499 117.098 48.2076 119.901 52.7764 119.901H138.958C143.527 119.901 146.049 116.41 147.232 111.61C148.109 108.056 155.814 76.8055 159.755 60.826H33.6055Z" fill="#B6B5B5"/>
    <path d="M31.9307 61.4997C31.9307 62.3599 33.3206 63.0566 35.0384 63.0566H156.648C158.364 63.0566 159.756 62.3599 159.756 61.4997C159.756 60.6389 158.364 59.9421 156.648 59.9421H35.0384C33.3206 59.9421 31.9307 60.6389 31.9307 61.4997Z" fill="#A7A5A6"/>
    <path d="M37.1655 75.8057C37.1655 76.6647 36.5018 77.3633 38.1479 77.3633H154.631C156.273 77.3633 157.606 76.6647 157.606 75.8057C157.606 74.9455 156.273 74.2476 154.631 74.2476H38.1479C36.5018 74.2476 37.1655 74.9455 37.1655 75.8057Z" fill="#A7A5A6"/>
    <path d="M125.945 119.731C126.778 119.926 127.608 119.442 127.793 118.646L140.951 62.3116C141.136 61.516 140.609 60.7127 139.775 60.5158C138.938 60.3212 138.11 60.8061 137.925 61.6022L124.767 117.937C124.581 118.732 125.107 119.535 125.945 119.731Z" fill="#A7A5A6"/>
    <path d="M102.992 119.053C103.829 119.249 104.656 118.765 104.845 117.969L118.001 61.6322C118.188 60.8397 117.66 60.0339 116.825 59.8394C115.99 59.6431 115.161 60.1291 114.975 60.9241L101.817 117.258C101.63 118.053 102.159 118.858 102.992 119.053Z" fill="#A7A5A6"/>
    <path d="M80.0427 119.68C80.8783 119.876 81.7062 119.391 81.8913 118.596L95.0492 62.2592C95.2356 61.4666 94.7093 60.6609 93.8755 60.4664C93.0381 60.27 92.2096 60.7561 92.0245 61.551L78.866 117.885C78.6814 118.68 79.2071 119.485 80.0427 119.68Z" fill="#A7A5A6"/>
    <path d="M57.0606 119.68C57.8981 119.876 58.7247 119.391 58.9111 118.596L72.069 62.2592C72.2541 61.4666 71.7291 60.6609 70.8917 60.4664C70.0561 60.27 69.2282 60.7561 69.043 61.551L55.8852 117.885C55.6988 118.68 56.225 119.485 57.0606 119.68Z" fill="#A7A5A6"/>
    <path d="M38.1954 79.3492C39.0304 79.5449 39.8594 79.0601 40.0446 78.2645L44.2149 62.2584C44.4025 61.4659 43.8751 60.6602 43.0395 60.4656C42.2026 60.2693 41.3742 60.7554 41.189 61.5503L37.0175 77.5552C36.8323 78.3501 37.3597 79.1534 38.1954 79.3492Z" fill="#A7A5A6"/>
    <path d="M40.7193 92.2959C40.7193 93.1243 40.0011 93.7959 41.544 93.7959H149.876C151.419 93.7959 152.668 93.1243 152.668 92.2959C152.668 91.4669 151.419 90.7959 149.876 90.7959H40.5598C39.0168 90.7959 40.7193 91.4669 40.7193 92.2959Z" fill="#A7A5A6"/>
    <path d="M44.0988 105.321C44.0988 106.181 42.3169 106.878 43.7798 106.878H147.324C148.787 106.878 149.971 106.181 149.971 105.321C149.971 104.46 148.787 103.763 147.324 103.763H43.7798C42.3169 103.763 44.0988 104.46 44.0988 105.321Z" fill="#A7A5A6"/>
    <path d="M119.262 164.114C117.361 170.022 125.479 172.861 127.886 166.862C129.316 163.296 134.341 149.442 134.341 149.442H115.465C115.465 149.442 121.746 156.4 119.262 164.114Z" fill="#D3D2D2"/>
    <path d="M168.372 49.317L183.165 47.8152C185.214 47.6117 187.046 49.1039 187.252 51.1577C187.461 53.2115 185.969 53.0152 183.92 53.2223L168.621 54.4033C167.815 53.2223 167.815 50.4035 168.372 49.317Z" fill="#186749"/>
    <path d="M120.976 165.321C120.976 166.565 121.984 167.576 123.229 167.576C124.472 167.576 125.479 166.565 125.479 165.321C125.479 164.076 124.472 163.065 123.229 163.065C121.984 163.065 120.976 164.076 120.976 165.321Z" fill="#9C9A9B"/>
    <path d="M57.046 153.179H132.995C136.411 153.179 139.123 151.734 141.513 142.048C142.21 139.218 159.212 68.4638 162.686 54.3274L184.228 52.4837C186.277 52.276 187.464 53.211 187.255 51.1572C187.049 49.1034 185.217 47.6111 183.168 47.8147L162.387 49.9247C160.818 50.0839 159.518 51.2153 159.141 52.7513C159.141 52.7513 138.425 137.097 137.648 140.253C136.303 145.705 133.901 148.165 132.995 148.165H57.046C52.6068 148.165 53.3481 153.179 57.046 153.179Z" fill="#A7A5A6"/>
    <path d="M110.424 55.4307L110.323 54.8234C110.411 54.7935 110.5 54.7648 110.589 54.7372L110.466 55.4157C110.452 55.4211 110.438 55.4259 110.424 55.4307Z" fill="#A0D0ED"/>
    <path d="M65.3974 164.693C63.1725 164.693 61.3633 162.879 61.3633 160.649C61.3633 158.42 63.1725 156.605 65.3974 156.605C66.165 156.605 66.914 156.826 67.565 157.242L67.7305 157.348L67.8846 157.447L65.9213 159.384L65.7522 159.339C65.7421 159.336 65.7319 159.334 65.7224 159.331C65.5999 159.3 65.4954 159.285 65.3974 159.285C64.6472 159.285 64.0356 159.897 64.0356 160.649C64.0356 161.402 64.6472 162.014 65.3974 162.014C66.1476 162.014 66.7587 161.402 66.7587 160.649C66.7587 160.543 66.742 160.432 66.7061 160.302C66.7031 160.291 66.7001 160.281 66.6972 160.27L66.647 160.095L68.6007 158.167L68.7041 158.329L68.8026 158.484C69.2142 159.134 69.4328 159.884 69.4328 160.649C69.4328 162.879 67.623 164.693 65.3974 164.693ZM65.3974 157.212C63.5064 157.212 61.9689 158.755 61.9689 160.649C61.9689 162.545 63.5064 164.086 65.3974 164.086C67.2885 164.086 68.8271 162.545 68.8271 160.649C68.8271 160.126 68.7059 159.611 68.4759 159.143L67.3243 160.278C67.3512 160.408 67.3655 160.529 67.3655 160.649C67.3655 161.736 66.4833 162.62 65.3974 162.62C64.3121 162.62 63.4293 161.736 63.4293 160.649C63.4293 159.562 64.3121 158.678 65.3974 158.678C65.5067 158.678 65.619 158.688 65.7379 158.712L66.902 157.564C66.4343 157.334 65.9213 157.212 65.3974 157.212Z" fill="#A0D0ED"/>
    <path d="M82.8027 61.4277C82.7263 62.1167 83.2214 62.7362 83.9113 62.8129C84.5958 62.8877 85.2152 62.3909 85.2917 61.7043C85.3657 61.0153 84.8706 60.3957 84.1843 60.3191C83.4962 60.2437 82.878 60.7387 82.8027 61.4277Z" fill="#2D69A0"/>
    <path d="M53.9883 166.055C53.9883 171.436 58.3426 175.796 63.7099 175.796C69.0784 175.796 73.4303 171.436 73.4303 166.055C73.4303 160.673 69.0784 156.312 63.7099 156.312C58.3426 156.312 53.9883 160.673 53.9883 166.055Z" fill="#1D1D1D"/>
    <path d="M57.7559 166.053C57.7559 169.344 60.418 172.012 63.7032 172.012C66.9877 172.012 69.6517 169.344 69.6517 166.053C69.6517 162.761 66.9877 160.093 63.7032 160.093C60.418 160.093 57.7559 162.761 57.7559 166.053Z" fill="#B9B7B8"/>
    <path d="M59.421 164.114C57.518 170.022 65.6383 172.861 68.0454 166.862C69.4747 163.296 74.4998 149.442 74.4998 149.442H55.627C55.627 149.442 61.9052 156.4 59.421 164.114Z" fill="#D3D2D2"/>
    <path d="M61.1445 165.321C61.1445 166.565 62.1516 167.576 63.3957 167.576C64.6387 167.576 65.6458 166.565 65.6458 165.321C65.6458 164.076 64.6387 163.065 63.3957 163.065C62.1516 163.065 61.1445 164.076 61.1445 165.321Z" fill="#9C9A9B"/>
    <path d="M113.831 166.055C113.831 171.436 118.184 175.796 123.553 175.796C128.921 175.796 133.273 171.436 133.273 166.055C133.273 160.673 128.921 156.312 123.553 156.312C118.184 156.312 113.831 160.673 113.831 166.055Z" fill="#282828"/>
    <path d="M117.604 166.053C117.604 169.344 120.268 172.012 123.553 172.012C126.837 172.012 129.5 169.344 129.5 166.053C129.5 162.761 126.837 160.093 123.553 160.093C120.268 160.093 117.604 162.761 117.604 166.053Z" fill="#B9B7B8"/>
    <path d="M36.3993 63.0569H157.163C153.391 77.8177 146.014 106.687 145.174 109.969C144.04 114.405 141.628 117.63 137.255 117.63H54.7512C50.3772 117.63 48.4073 115.041 46.8311 109.969C45.0093 104.112 39.3254 77.1401 36.3993 63.0569ZM33.6045 60.826C36.6597 76.0704 42.5992 105.269 44.5016 111.61C46.149 117.098 48.2066 119.901 52.7754 119.901H138.957C143.526 119.901 146.048 116.41 147.232 111.61C148.108 108.056 155.814 76.8055 159.754 60.826H33.6045Z" fill="#A7A5A6"/>
    <path d="M31.9307 61.4997C31.9307 62.3599 33.3206 63.0566 35.0384 63.0566H156.648C158.364 63.0566 159.756 62.3599 159.756 61.4997C159.756 60.6389 158.364 59.9421 156.648 59.9421H35.0384C33.3206 59.9421 31.9307 60.6389 31.9307 61.4997Z" fill="#A7A5A6"/>
    <path d="M119.261 164.114C117.36 170.022 125.478 172.861 127.885 166.862C129.315 163.296 134.34 149.442 134.34 149.442H115.464C115.464 149.442 121.745 156.4 119.261 164.114Z" fill="#D3D2D2"/>
    <path d="M168.371 49.317L183.164 47.8152C185.213 47.6117 187.045 49.1039 187.251 51.1577C187.46 53.2115 185.968 53.0152 183.919 53.2223L168.62 54.4033C167.814 53.2223 167.814 50.4035 168.371 49.317Z" fill="#186749"/>
    <path d="M120.976 165.321C120.976 166.565 121.984 167.576 123.229 167.576C124.472 167.576 125.479 166.565 125.479 165.321C125.479 164.076 124.472 163.065 123.229 163.065C121.984 163.065 120.976 164.076 120.976 165.321Z" fill="#9C9A9B"/>
    <defs>
        <linearGradient id="paint0_linear_1071_5592" x1="118.742" y1="193" x2="112.591" y2="-4.79977" gradientUnits="userSpaceOnUse">
            <stop stop-color="white"/>
            <stop offset="1" stop-color="#EBEBEB"/>
        </linearGradient>
    </defs>
</svg>
