<svg width="92" height="88" viewBox="0 0 92 88" fill="none" xmlns="http://www.w3.org/2000/svg">
<path d="M91.2241 44.0012C91.2241 68.3007 70.8022 88 45.6126 88C20.4208 88 0 68.3007 0 44.0012C0 19.6993 20.4208 0 45.6126 0C70.8022 0 91.2241 19.6993 91.2241 44.0012Z" fill="#E59231"/>
<path d="M45.6143 84.3047C22.5387 84.3047 3.83008 66.2613 3.83008 44.0007C3.83008 21.739 22.5387 3.69323 45.6143 3.69323C68.6912 3.69323 87.3974 21.739 87.3974 44.0007C87.3974 66.2613 68.6912 84.3047 45.6143 84.3047ZM46.5758 45.6625V83.4978C60.7522 83.1816 73.1461 75.9242 80.2466 65.1031L46.5758 45.6625ZM44.6529 45.6625L10.9821 65.1042C18.0814 75.9242 30.4753 83.1816 44.6529 83.4978V45.6625ZM81.2608 24.5274L47.5361 43.9984L81.2608 63.4717C84.6418 57.7239 86.5835 51.0825 86.5835 44.0007C86.5835 36.9178 84.6418 30.2752 81.2608 24.5274ZM9.96672 24.5262C6.5857 30.2752 4.644 36.9178 4.644 44.0007C4.644 51.0825 6.5857 57.7239 9.96672 63.4717L43.6949 43.9984L9.96672 24.5262ZM46.5758 4.5013V42.3366L80.2442 22.896C73.1461 12.0749 60.7522 4.8175 46.5758 4.5013ZM44.6529 4.5013C30.4753 4.8175 18.0814 12.0749 10.9821 22.8949L44.6529 42.3366V4.5013Z" fill="#E07D2A"/>
<path d="M9.96725 24.5243C6.58624 30.2733 4.64453 36.9158 4.64453 43.9987C4.64453 51.0805 6.58624 57.7219 9.96725 63.4697L43.6954 43.9964L9.96725 24.5243Z" fill="#FFD667"/>
<path d="M10.9785 65.1025C18.0778 75.9225 30.4717 83.1799 44.6493 83.4961V45.6608L10.9785 65.1025Z" fill="#FFD667"/>
<path d="M44.6493 4.50068C30.4717 4.81688 18.0778 12.0743 10.9785 22.8942L44.6493 42.3359V4.50068Z" fill="#FFD667"/>
<path d="M81.2559 63.4697C84.6369 57.7219 86.5786 51.0805 86.5786 43.9988C86.5786 36.9158 84.6369 30.2733 81.2559 24.5254L47.5312 43.9964L81.2559 63.4697Z" fill="#FFD667"/>
<path d="M46.5742 83.4961C60.7506 83.1799 73.1445 75.9225 80.245 65.1014L46.5742 45.6608V83.4961Z" fill="#FFD667"/>
<path d="M80.2426 22.8954C73.1445 12.0743 60.7506 4.81688 46.5742 4.50068V42.3359L80.2426 22.8954Z" fill="#FFD667"/>
<path d="M40.2526 13.6239C44.1102 18.244 43.4884 25.1102 38.8718 28.9667C34.2553 32.8208 27.382 32.2001 23.5278 27.5848C19.676 22.9647 20.2956 16.0949 24.9121 12.2408C29.531 8.38666 36.3984 9.00619 40.2526 13.6239Z" fill="#DB2C1A"/>
<path d="M39.2291 14.4818C42.6511 18.5807 42.1007 24.6776 38.0018 28.1019C33.9041 31.5216 27.8049 30.97 24.3829 26.8734C20.9621 22.7734 21.509 16.6765 25.6114 13.2545C29.7103 9.83368 35.8059 10.3829 39.2291 14.4818Z" fill="#FA5E43"/>
<path d="M26.7295 18.9033C26.1369 18.0519 26.1767 16.9605 27.2576 16.6021C28.143 16.307 29.0799 17.1572 29.8271 17.5694C30.2053 17.7767 30.7605 18.1328 31.1797 17.943C31.6119 17.7498 31.6118 17.046 31.7196 16.6126C31.9526 15.6758 32.1494 14.2892 32.8626 13.6251C33.7386 12.8147 34.5771 13.7563 34.8476 14.6908C35.1252 15.6301 34.5689 16.5635 34.7914 17.5144C35.0455 18.6176 36.376 18.5825 37.2426 18.5157C38.0249 18.4572 39.3365 18.2967 39.8928 19.024C40.592 19.9386 39.5509 20.9657 38.8786 21.4552C37.9933 22.0935 36.4977 22.1626 35.7869 22.9964C35.0268 23.8876 35.9075 24.9287 35.9977 25.8937C36.0984 26.9852 35.7623 27.6492 34.9144 28.2664C34.0478 28.8941 33.2467 28.6107 32.5886 27.7019C32.0721 26.9887 32.2431 25.6806 31.2441 25.403C30.1796 25.1044 29.4956 26.1701 28.6033 26.3961C26.9824 26.8131 26.247 25.1114 26.8501 23.8689C27.274 22.9894 28.3702 22.5502 28.8468 21.6941C29.5554 20.4153 27.3244 19.7641 26.7295 18.9033Z" fill="#CF2919"/>
<path d="M27.8451 18.4286C27.9411 18.5422 27.8919 18.7401 27.735 18.8678C27.5781 19.0001 27.3766 19.013 27.2818 18.8994C27.1881 18.7881 27.2373 18.5902 27.3942 18.4614C27.5488 18.3279 27.7526 18.315 27.8451 18.4286Z" fill="#F0C06C"/>
<path d="M27.5667 18.8154H27.2969L27.345 18.5491H27.6148L27.5667 18.8154Z" fill="#F8E0B6"/>
<path d="M29.2407 17.6074C29.3332 17.7198 29.2816 17.9166 29.1259 18.0477C28.9736 18.1789 28.771 18.1918 28.675 18.077C28.5813 17.9658 28.6281 17.7702 28.7851 17.639C28.9432 17.5102 29.147 17.495 29.2407 17.6074Z" fill="#F0C06C"/>
<path d="M28.9722 17.9951H28.7012L28.7516 17.7288L29.0203 17.7253L28.9722 17.9951Z" fill="#F8E0B6"/>
<path d="M28.3459 23.5665C28.4396 23.6778 28.3869 23.8757 28.2323 24.0057C28.0754 24.1368 27.8739 24.1509 27.7791 24.0385C27.6866 23.9249 27.7357 23.727 27.8903 23.597C28.0473 23.4693 28.2487 23.4529 28.3459 23.5665Z" fill="#F0C06C"/>
<path d="M27.7969 23.9521L27.8508 23.6846L28.1207 23.6823L28.0714 23.9498L27.7969 23.9521Z" fill="#F8E0B6"/>
<path d="M28.5438 24.8416C28.6351 24.9552 28.5883 25.1519 28.4314 25.2819C28.2768 25.4119 28.0741 25.426 27.9793 25.3147C27.8821 25.2 27.9324 25.0032 28.0894 24.872C28.2486 24.7409 28.4477 24.7292 28.5438 24.8416Z" fill="#F0C06C"/>
<path d="M28.2628 25.2227H27.9941L28.0423 24.9551H28.3156L28.2628 25.2227Z" fill="#F8E0B6"/>
<path d="M34.1311 23.6008C34.2247 23.7132 34.1744 23.9099 34.0233 24.0411C33.8664 24.1711 33.6626 24.1852 33.5677 24.0716C33.4717 23.9591 33.5244 23.7612 33.679 23.6324C33.8348 23.4989 34.0362 23.4872 34.1311 23.6008Z" fill="#F0C06C"/>
<path d="M33.8628 23.9863H33.5918L33.6411 23.7176H33.918L33.8628 23.9863Z" fill="#F8E0B6"/>
<path d="M30.7559 21.21C30.8508 21.3213 30.7992 21.5204 30.6423 21.6492C30.4912 21.778 30.2875 21.7921 30.1915 21.6808C30.0989 21.5672 30.1469 21.3693 30.3027 21.2393C30.4608 21.1105 30.6646 21.0941 30.7559 21.21Z" fill="#F0C06C"/>
<path d="M30.482 21.5928H30.2109L30.259 21.3264L30.5266 21.3241L30.482 21.5928Z" fill="#F8E0B6"/>
<path d="M33.7737 26.4416C33.8733 26.554 33.8229 26.7531 33.666 26.8819C33.5102 27.0119 33.3053 27.026 33.2139 26.9124C33.1191 26.8011 33.1694 26.6032 33.3264 26.472C33.4809 26.3444 33.6847 26.3292 33.7737 26.4416Z" fill="#F0C06C"/>
<path d="M33.2402 26.8281L33.2895 26.5594H33.5582L33.5101 26.8246L33.2402 26.8281Z" fill="#F8E0B6"/>
<path d="M35.2163 21.2265C35.31 21.3401 35.2609 21.5345 35.1039 21.6656C34.9493 21.798 34.7456 21.8108 34.6507 21.6972C34.557 21.5836 34.6074 21.3881 34.7619 21.2581C34.9189 21.1281 35.1191 21.114 35.2163 21.2265Z" fill="#F0C06C"/>
<path d="M34.941 21.6123H34.6699L34.718 21.346L34.9891 21.3448L34.941 21.6123Z" fill="#F8E0B6"/>
<path d="M37.1074 21.1837C37.2023 21.295 37.1519 21.4929 36.9974 21.6241C36.8416 21.7541 36.639 21.7658 36.543 21.6545C36.4505 21.5433 36.4985 21.343 36.6554 21.2154C36.8123 21.0854 37.0114 21.0713 37.1074 21.1837Z" fill="#F0C06C"/>
<path d="M36.832 21.5674H36.5645L36.6125 21.3022L36.8836 21.301L36.832 21.5674Z" fill="#F8E0B6"/>
<path d="M33.699 15.8973C33.7938 16.0097 33.7435 16.2076 33.5865 16.3376C33.4331 16.4676 33.2305 16.4816 33.1345 16.3704C33.0396 16.2556 33.0876 16.06 33.2446 15.9289C33.4015 15.7989 33.603 15.7848 33.699 15.8973Z" fill="#F0C06C"/>
<path d="M33.4234 16.2812H33.1523L33.2005 16.0161H33.4727L33.4234 16.2812Z" fill="#F8E0B6"/>
<path d="M33.7951 14.3806C33.8888 14.4942 33.8384 14.6921 33.6827 14.8221C33.5304 14.9521 33.3266 14.9673 33.2271 14.8513C33.1358 14.7389 33.1861 14.5422 33.3419 14.4134C33.4965 14.2834 33.7002 14.2693 33.7951 14.3806Z" fill="#F0C06C"/>
<path d="M33.5253 14.7646H33.252L33.3047 14.4995H33.577L33.5253 14.7646Z" fill="#F8E0B6"/>
<path d="M32.1594 18.0344C32.2554 18.1456 32.2039 18.3435 32.0481 18.4747C31.8924 18.6047 31.6886 18.6187 31.5937 18.5051C31.5 18.3927 31.5516 18.1948 31.7062 18.066C31.8608 17.936 32.0645 17.9208 32.1594 18.0344Z" fill="#F0C06C"/>
<path d="M31.6191 18.4209L31.6684 18.1534L31.9395 18.151L31.889 18.4185L31.6191 18.4209Z" fill="#F8E0B6"/>
<path d="M38.4491 19.7727C38.5451 19.8863 38.4959 20.0831 38.3413 20.2119C38.1844 20.3431 37.9806 20.3571 37.8869 20.2435C37.7897 20.1311 37.8424 19.9332 37.997 19.8032C38.154 19.672 38.3565 19.6603 38.4491 19.7727Z" fill="#F0C06C"/>
<path d="M37.9004 20.1533L37.9485 19.887H38.2195L38.1714 20.151L37.9004 20.1533Z" fill="#F8E0B6"/>
<path d="M26.3831 27.5088C25.7846 27.5088 25.0668 26.6726 24.877 26.3869C18.9418 17.3798 26.8831 11.3521 32.4436 11.3521C33.5503 11.3521 34.5622 11.591 35.3527 12.0922C35.5763 12.2374 36.1865 13.0092 36.1771 13.3055C36.1748 13.5163 36.0202 13.6873 35.8235 13.6873C35.786 13.6873 35.7462 13.6814 35.7063 13.6674C35.5131 13.6065 34.5153 13.3172 34.3069 13.2598C33.9274 13.1544 33.5093 13.1029 33.0655 13.1029C28.6059 13.1029 21.619 18.2933 26.2027 25.2427C26.5517 25.779 27.3141 26.3751 26.9757 27.0696C26.8199 27.387 26.6103 27.5088 26.3831 27.5088Z" fill="#FC8F7C"/>
<path d="M66.7813 59.0793C70.6378 63.697 70.0182 70.5644 65.4005 74.4209C60.7852 78.2739 53.9107 77.6555 50.0566 73.039C46.2059 68.4189 46.8243 61.5503 51.442 57.695C56.0609 53.8409 62.9283 54.4604 66.7813 59.0793Z" fill="#DB2C1A"/>
<path d="M65.7642 59.9307C69.1885 64.0296 68.6381 70.1276 64.538 73.5508C60.4415 76.9704 54.3435 76.42 50.9191 72.3223C47.4983 68.2234 48.0475 62.1254 52.1488 58.7045C56.2454 55.2825 62.3445 55.8318 65.7642 59.9307Z" fill="#FA5E43"/>
<path d="M53.2648 64.3564C52.6734 63.5038 52.7097 62.4123 53.793 62.0551C54.6784 61.76 55.6141 62.6091 56.3625 63.0213C56.7419 63.2298 57.2958 63.5846 57.7162 63.3949C58.1472 63.2028 58.1472 62.4978 58.255 62.0657C58.4892 61.1276 58.6848 59.741 59.398 59.0781C60.274 58.2666 61.1125 59.2081 61.383 60.1427C61.6617 61.0819 61.1043 62.0153 61.3268 62.9674C61.5809 64.0706 62.9125 64.0355 63.7791 63.9676C64.5614 63.909 65.8719 63.7497 66.4282 64.4758C67.1285 65.3916 66.0862 66.4175 65.4128 66.9071C64.5298 67.5465 63.032 67.6156 62.3223 68.4494C61.5622 69.3406 62.4441 70.3818 62.5331 71.3444C62.6338 72.4382 62.2965 73.1023 61.4498 73.7183C60.582 74.346 59.7833 74.0637 59.1239 73.1538C58.6086 72.4406 58.7761 71.1324 57.7771 70.8549C56.7149 70.5563 56.0322 71.622 55.1398 71.8492C53.519 72.2649 52.7823 70.5633 53.3843 69.3219C53.8094 68.4412 54.9056 68.0032 55.3822 67.1471C56.0919 65.8671 53.8586 65.216 53.2648 64.3564Z" fill="#CF2919"/>
<path d="M54.3775 63.8802C54.4723 63.9938 54.4243 64.1917 54.2674 64.3193C54.1081 64.4528 53.9079 64.4646 53.813 64.3521C53.7193 64.2397 53.7685 64.043 53.9254 63.913C54.0789 63.7795 54.2838 63.7677 54.3775 63.8802Z" fill="#F0C06C"/>
<path d="M54.1097 64.2656H53.8398L53.8891 63.9993H54.1578L54.1097 64.2656Z" fill="#F8E0B6"/>
<path d="M55.7816 63.0604C55.8753 63.1717 55.8226 63.3696 55.668 63.4996C55.5123 63.6296 55.3132 63.6448 55.216 63.5301C55.1223 63.4165 55.1692 63.2232 55.3261 63.0909C55.483 62.9621 55.6868 62.9468 55.7816 63.0604Z" fill="#F0C06C"/>
<path d="M55.5105 63.4453H55.2383L55.2911 63.1778L55.5586 63.1743L55.5105 63.4453Z" fill="#F8E0B6"/>
<path d="M54.8805 69.0197C54.9742 69.131 54.9227 69.3289 54.7669 69.4589C54.61 69.5889 54.4085 69.6029 54.3137 69.4905C54.2223 69.3769 54.2704 69.179 54.4261 69.049C54.5819 68.9202 54.7845 68.9061 54.8805 69.0197Z" fill="#F0C06C"/>
<path d="M54.3379 69.4004L54.393 69.1329L54.6606 69.1317L54.6113 69.3992L54.3379 69.4004Z" fill="#F8E0B6"/>
<path d="M55.0765 70.2911C55.1678 70.4035 55.121 70.6003 54.9641 70.7303C54.8095 70.8614 54.6057 70.8755 54.5109 70.7631C54.416 70.6495 54.4663 70.4516 54.6221 70.3192C54.7802 70.1904 54.9816 70.1775 55.0765 70.2911Z" fill="#F0C06C"/>
<path d="M54.805 70.6758H54.5352L54.5833 70.4083H54.8555L54.805 70.6758Z" fill="#F8E0B6"/>
<path d="M60.6725 69.0488C60.7662 69.1612 60.7159 69.3592 60.5624 69.4892C60.4079 69.6191 60.2041 69.6332 60.1069 69.5208C60.0144 69.4072 60.0647 69.2093 60.2193 69.0804C60.3762 68.9481 60.5753 68.9352 60.6725 69.0488Z" fill="#F0C06C"/>
<path d="M60.3972 69.4355H60.125L60.1743 69.1669H60.4488L60.3972 69.4355Z" fill="#F8E0B6"/>
<path d="M57.2901 66.6589C57.3862 66.7701 57.3335 66.968 57.1765 67.098C57.0231 67.228 56.8205 67.2409 56.7268 67.1297C56.6308 67.0172 56.68 66.8193 56.8369 66.6881C56.995 66.5593 57.1964 66.5441 57.2901 66.6589Z" fill="#F0C06C"/>
<path d="M57.0222 67.0459H56.75L56.7993 66.7795L57.068 66.776L57.0222 67.0459Z" fill="#F8E0B6"/>
<path d="M60.3153 71.891C60.4148 72.0022 60.3621 72.2002 60.2052 72.3313C60.0506 72.4613 59.8468 72.4754 59.7555 72.3606C59.6606 72.2494 59.7086 72.0514 59.8679 71.9214C60.0225 71.7938 60.2263 71.7786 60.3153 71.891Z" fill="#F0C06C"/>
<path d="M59.7734 72.2803L59.8227 72.0092H60.0914L60.0433 72.2756L59.7734 72.2803Z" fill="#F8E0B6"/>
<path d="M61.7496 66.6772C61.8457 66.7897 61.7965 66.9852 61.6384 67.1152C61.4849 67.2487 61.2812 67.2605 61.1863 67.148C61.0915 67.0333 61.143 66.8389 61.2987 66.7077C61.4557 66.5765 61.6548 66.5636 61.7496 66.6772Z" fill="#F0C06C"/>
<path d="M61.4832 67.0615H61.2109L61.259 66.7952L61.5324 66.794L61.4832 67.0615Z" fill="#F8E0B6"/>
<path d="M63.6436 66.634C63.7385 66.7453 63.6869 66.9432 63.5323 67.0744C63.3789 67.2055 63.1751 67.2173 63.0803 67.1048C62.9842 66.9936 63.0334 66.7945 63.1915 66.6668C63.3485 66.5357 63.5487 66.5216 63.6436 66.634Z" fill="#F0C06C"/>
<path d="M63.3714 67.0166H63.1016L63.1509 66.7526L63.4231 66.7503L63.3714 67.0166Z" fill="#F8E0B6"/>
<path d="M60.2346 61.3479C60.3283 61.4592 60.2791 61.6571 60.1222 61.7871C59.97 61.9183 59.7662 61.9323 59.669 61.8187C59.5742 61.7051 59.6245 61.5107 59.7814 61.3784C59.9384 61.2484 60.1398 61.2343 60.2346 61.3479Z" fill="#F0C06C"/>
<path d="M59.9664 61.7305H59.6953L59.7446 61.4641H60.0133L59.9664 61.7305Z" fill="#F8E0B6"/>
<path d="M60.3356 59.8306C60.4304 59.943 60.3801 60.1409 60.2255 60.2709C60.0697 60.4021 59.8671 60.4161 59.7675 60.3002C59.6762 60.1877 59.7289 59.9922 59.8835 59.8622C60.0381 59.7322 60.2419 59.7181 60.3356 59.8306Z" fill="#F0C06C"/>
<path d="M60.0546 60.2139H59.7812L59.834 59.9487H60.1051L60.0546 60.2139Z" fill="#F8E0B6"/>
<path d="M58.6998 63.4854C58.7946 63.5967 58.7466 63.7958 58.5897 63.9269C58.4351 64.0558 58.2313 64.0698 58.1353 63.9562C58.0404 63.8438 58.0931 63.6459 58.2477 63.517C58.4023 63.387 58.6061 63.373 58.6998 63.4854Z" fill="#F0C06C"/>
<path d="M58.1621 63.8711L58.2102 63.6036L58.4813 63.6024L58.4308 63.8699L58.1621 63.8711Z" fill="#F8E0B6"/>
<path d="M64.9813 65.2209C65.0761 65.3345 65.027 65.5312 64.8724 65.6601C64.7154 65.7924 64.5116 65.8065 64.4168 65.6929C64.3219 65.5793 64.3735 65.3813 64.5292 65.2514C64.6861 65.1214 64.8852 65.1085 64.9813 65.2209Z" fill="#F0C06C"/>
<path d="M64.4434 65.6074L64.4926 65.3411H64.7637L64.7144 65.6062L64.4434 65.6074Z" fill="#F8E0B6"/>
<path d="M52.9243 72.957C52.327 72.957 51.608 72.122 51.4194 71.8351C45.4818 62.828 53.4232 56.8003 58.9837 56.8003C60.0904 56.8003 61.1022 57.0392 61.8915 57.5405C62.1176 57.6868 62.7265 58.4586 62.7195 58.7549C62.716 58.9645 62.5614 59.1367 62.3635 59.1367C62.326 59.1367 62.2862 59.1297 62.2464 59.1168C62.0543 59.0547 61.0577 58.7654 60.8481 58.7081C60.4686 58.6027 60.0506 58.5511 59.6079 58.5511C55.1471 58.5511 48.159 63.7415 52.7428 70.6909C53.0918 71.2273 53.8553 71.8234 53.5181 72.5179C53.3611 72.8364 53.1515 72.957 52.9243 72.957Z" fill="#FC8F7C"/>
<path d="M37.4795 77.452C36.8541 78.7203 34.8434 79.0025 32.993 78.0902C31.1426 77.1732 30.1519 75.4037 30.7772 74.1365C31.4038 72.8694 33.4134 72.5836 35.2638 73.4983C37.1165 74.4129 38.1072 76.1848 37.4795 77.452Z" fill="#242C33"/>
<path d="M34.825 77.6914C34.2652 77.6914 33.6481 77.5497 33.0508 77.2557C31.5424 76.5086 30.7343 75.0646 31.2449 74.0282C31.5541 73.4039 32.2743 73.0713 33.1292 73.0713C33.689 73.0713 34.3074 73.213 34.9046 73.5093C36.4154 74.2565 37.2235 75.6993 36.714 76.7346C36.4049 77.3588 35.6823 77.6914 34.825 77.6914Z" fill="#2F373F"/>
<path d="M31.6016 73.959C31.6016 73.959 31.6929 73.8946 31.8499 73.7799C31.9248 73.719 32.0349 73.6768 32.1555 73.6194C32.2796 73.5491 32.4225 73.5117 32.5818 73.473C32.7387 73.4191 32.9109 73.4192 33.0947 73.3899C33.2751 73.3934 33.4719 73.3723 33.6663 73.4074C33.8607 73.4309 34.0609 73.4648 34.2542 73.5292C34.4521 73.5831 34.6406 73.6698 34.8315 73.7506C35.0142 73.8501 35.1992 73.9473 35.3597 74.0726C35.5354 74.1815 35.6759 74.3338 35.8188 74.4626C35.9499 74.6137 36.0811 74.7542 36.1736 74.9123C36.2708 75.0693 36.3622 75.2156 36.4207 75.3714C36.4933 75.5178 36.5367 75.663 36.5589 75.7965C36.5905 75.9265 36.6151 76.0413 36.6151 76.1408C36.6245 76.3352 36.628 76.4453 36.628 76.4453C36.628 76.4453 36.6034 76.3399 36.5589 76.1572C36.546 76.0635 36.505 75.9605 36.4547 75.8434C36.4125 75.7227 36.354 75.5951 36.2755 75.4663C36.2076 75.3269 36.1069 75.2004 36.0026 75.0646C35.9019 74.9287 35.7637 74.8116 35.6384 74.6769C35.362 74.4357 35.0411 74.2085 34.6922 74.0387C34.5141 73.9579 34.3385 73.8712 34.1534 73.8209C33.9707 73.7588 33.7881 73.7096 33.6065 73.6803C33.4273 73.6393 33.2458 73.6393 33.0784 73.6159C32.9062 73.6288 32.7422 73.6077 32.5935 73.644C32.4436 73.6709 32.3031 73.6827 32.1859 73.7248C32.0642 73.7635 31.9564 73.7845 31.8721 73.8337C31.6999 73.9134 31.6016 73.959 31.6016 73.959Z" fill="white"/>
<path d="M54.6326 53.8681C54.4125 55.2641 52.5773 56.1319 50.5384 55.8098C48.4995 55.4854 47.0262 54.0906 47.2464 52.6947C47.4689 51.2975 49.3029 50.4274 51.3418 50.7518C53.3819 51.075 54.8551 52.471 54.6326 53.8681Z" fill="#242C33"/>
<path d="M51.0405 55.0459C50.8157 55.0459 50.585 55.0283 50.3496 54.9909C48.6878 54.7274 47.485 53.5879 47.6666 52.4472C47.8223 51.4705 48.9466 50.8076 50.3133 50.8076C50.5393 50.8076 50.7712 50.8264 51.0066 50.8638C52.6707 51.1285 53.8723 52.2645 53.6931 53.4052C53.5362 54.383 52.4107 55.0459 51.0405 55.0459Z" fill="#2F373F"/>
<path d="M47.9844 52.2785C47.9844 52.2785 48.0523 52.1907 48.1694 52.0349L48.4142 51.7902C48.5114 51.6859 48.6355 51.6086 48.7761 51.5243C48.9107 51.4259 49.0747 51.3756 49.241 51.2913C49.4143 51.2421 49.5958 51.1624 49.7914 51.139C49.9846 51.1039 50.1872 51.0769 50.391 51.0804C50.5971 51.0734 50.8021 51.0992 51.007 51.1203C51.2131 51.1601 51.4157 51.1987 51.6066 51.2702C51.8069 51.3217 51.9861 51.4271 52.1629 51.5067C52.3316 51.6121 52.499 51.7082 52.6337 51.83C52.7742 51.9518 52.9042 52.063 53.0049 52.1965C53.1185 52.3136 53.2029 52.4389 53.2649 52.5596C53.334 52.6743 53.3902 52.7762 53.4195 52.8723C53.4874 53.0561 53.5226 53.1592 53.5226 53.1592C53.5226 53.1592 53.4699 53.0655 53.3727 52.9051L53.1783 52.6357C53.1045 52.5315 53.0073 52.4296 52.8949 52.3289C52.7906 52.2164 52.656 52.1251 52.5154 52.0267C52.3796 51.926 52.2121 51.8557 52.0528 51.7644C51.7167 51.6168 51.3431 51.495 50.959 51.4365C50.7669 51.4131 50.5725 51.3814 50.3805 51.3885C50.1872 51.3838 49.9987 51.392 49.8183 51.4177C49.6333 51.4318 49.4611 51.4845 49.2937 51.5138C49.1332 51.5758 48.9705 51.6051 48.8381 51.6847C48.7034 51.755 48.5723 51.8065 48.4739 51.8827L48.2069 52.0794C48.0652 52.2071 47.9844 52.2785 47.9844 52.2785Z" fill="white"/>
<path d="M76.8011 65.2063C77.5646 66.3974 76.7694 68.2653 75.0303 69.379C73.2924 70.4904 71.264 70.4272 70.5004 69.2373C69.7392 68.0463 70.5309 66.1772 72.2688 65.0646C74.0091 63.9497 76.0387 64.0141 76.8011 65.2063Z" fill="#242C33"/>
<path d="M72.2831 69.5459C71.5734 69.5459 70.9668 69.2882 70.6412 68.7812C70.0194 67.8103 70.6635 66.2855 72.084 65.3779C72.7633 64.9434 73.4964 64.7291 74.1429 64.7291C74.8502 64.7291 75.4545 64.9856 75.7801 65.4927C76.4019 66.4635 75.7555 67.9895 74.3361 68.8983C73.6604 69.3316 72.9296 69.5459 72.2831 69.5459Z" fill="#2F373F"/>
<path d="M70.769 68.4414C70.769 68.4414 70.7573 68.3313 70.7432 68.1369C70.7292 68.0409 70.7479 67.9261 70.7632 67.7914C70.7655 67.6497 70.8076 67.508 70.8568 67.3511C70.892 67.1895 70.9822 67.0419 71.0513 66.8686C71.1461 66.7164 71.2304 66.5372 71.3592 66.3896C71.4799 66.235 71.6146 66.0804 71.7703 65.9469C71.9167 65.8052 72.0889 65.6881 72.2552 65.5675C72.4367 65.4621 72.6135 65.3532 72.8044 65.2806C72.9871 65.188 73.1909 65.1459 73.3759 65.0897C73.5715 65.0545 73.76 65.0147 73.9427 65.0171C74.1278 65.0147 74.2999 65.0124 74.4639 65.044C74.6267 65.0569 74.7719 65.0955 74.9007 65.1436C75.0284 65.1834 75.1384 65.222 75.2239 65.2747C75.3961 65.3661 75.4909 65.4199 75.4909 65.4199C75.4909 65.4199 75.3879 65.386 75.2087 65.3298C75.1209 65.2946 75.0108 65.2747 74.8855 65.2571C74.7614 65.229 74.6208 65.2173 74.4697 65.2173C74.3163 65.2021 74.1559 65.2232 73.9861 65.2431C73.8174 65.2583 73.6464 65.3157 73.4649 65.3543C73.1159 65.4679 72.7552 65.6249 72.4308 65.8368C72.2704 65.9458 72.1041 66.0523 71.9659 66.1858C71.8183 66.3088 71.6836 66.44 71.5642 66.5805C71.4354 66.714 71.3417 66.8674 71.2374 66.9998C71.159 67.1532 71.0548 67.2832 71.0103 67.4307C70.9552 67.5724 70.8943 67.6978 70.8674 67.8207C70.8393 67.9437 70.8006 68.0479 70.8006 68.1451C70.7784 68.3348 70.769 68.4414 70.769 68.4414Z" fill="white"/>
<path d="M56.0324 9.33817C56.796 10.5292 56.0008 12.3971 54.264 13.5109C52.5238 14.6223 50.4954 14.559 49.7318 13.3692C48.9729 12.1781 49.7623 10.309 51.5026 9.19647C53.2428 8.08274 55.27 8.14598 56.0324 9.33817Z" fill="#242C33"/>
<path d="M51.5179 13.6738C50.8094 13.6738 50.2016 13.4162 49.8772 12.9091C49.2553 11.9382 49.9018 10.4134 51.32 9.50582C51.9993 9.07133 52.7324 8.85703 53.38 8.85703C54.0862 8.85703 54.6916 9.11233 55.0172 9.61942C55.6367 10.5915 54.9926 12.1174 53.5721 13.0262C52.8963 13.4595 52.1644 13.6738 51.5179 13.6738Z" fill="#2F373F"/>
<path d="M50.0109 12.5674C50.0109 12.5674 50.0015 12.4573 49.9851 12.2629C49.9711 12.1669 49.9922 12.0521 50.005 11.9174C50.0086 11.7757 50.0495 11.634 50.0987 11.4771C50.1338 11.3155 50.224 11.1691 50.2931 10.9946C50.388 10.8423 50.4723 10.6631 50.6023 10.5144C50.7217 10.361 50.8564 10.2064 51.011 10.0729C51.1609 9.93121 51.3307 9.81408 51.4994 9.69346C51.6786 9.58806 51.8554 9.47915 52.0463 9.40654C52.2313 9.31285 52.4339 9.27186 52.6178 9.21565C52.8134 9.18052 53.0043 9.1407 53.1846 9.14304C53.372 9.1407 53.543 9.13835 53.7058 9.16997C53.8697 9.18286 54.0161 9.2215 54.1426 9.26952C54.2702 9.30933 54.3803 9.34798 54.4658 9.40068C54.638 9.4932 54.7328 9.54591 54.7328 9.54591C54.7328 9.54591 54.6298 9.51195 54.4506 9.45573C54.3651 9.4206 54.255 9.40069 54.1274 9.38195C54.0032 9.35502 53.8627 9.3433 53.7116 9.3433C53.5582 9.3269 53.3978 9.34916 53.228 9.3679C53.0605 9.3843 52.8883 9.44168 52.7068 9.48032C52.3601 9.59392 51.9995 9.74968 51.6727 9.96282C51.5134 10.0717 51.3471 10.1783 51.2078 10.3118C51.0614 10.4348 50.9255 10.5659 50.8084 10.7065C50.6772 10.84 50.5836 10.9934 50.4793 11.1257C50.4009 11.2792 50.2978 11.4091 50.2521 11.5567C50.1971 11.6984 50.1362 11.8237 50.1093 11.9467C50.0823 12.0697 50.0425 12.1739 50.0425 12.2711C50.0214 12.4608 50.0109 12.5674 50.0109 12.5674Z" fill="white"/>
<path d="M16.433 30.8969C16.3943 32.3104 14.6857 33.4078 12.6222 33.3504C10.5598 33.2907 8.91792 32.0973 8.95774 30.6838C8.99873 29.2714 10.705 28.1717 12.7686 28.2303C14.8332 28.2877 16.4739 29.4834 16.433 30.8969Z" fill="#242C33"/>
<path d="M12.4536 32.5654C12.4114 32.5654 12.3693 32.5654 12.3271 32.5643C10.6454 32.5151 9.30682 31.5407 9.33844 30.386C9.37123 29.2641 10.6899 28.3846 12.3154 28.3846C12.3599 28.3846 12.4044 28.3846 12.4489 28.3857C14.1306 28.4349 15.4704 29.4081 15.4388 30.5605C15.406 31.6848 14.0826 32.5654 12.4536 32.5654Z" fill="#2F373F"/>
<path d="M9.63672 30.1773C9.63672 30.1773 9.69056 30.0812 9.7866 29.9114L9.99858 29.6385C10.0806 29.5226 10.1953 29.4289 10.3218 29.327C10.4436 29.2123 10.6005 29.1408 10.7551 29.0366C10.9191 28.9651 11.0889 28.8633 11.2798 28.8152C11.466 28.7555 11.6639 28.7028 11.8677 28.6794C12.0691 28.6454 12.2764 28.6443 12.4837 28.6396C12.691 28.6548 12.9006 28.6642 13.0985 28.7122C13.3035 28.7368 13.4943 28.8176 13.6794 28.875C13.8597 28.9558 14.0378 29.0296 14.1888 29.1338C14.3422 29.2368 14.4851 29.3305 14.6034 29.4488C14.7322 29.5519 14.8306 29.6655 14.9079 29.7767L15.1023 30.0672C15.1913 30.2405 15.2417 30.3389 15.2417 30.3389C15.2417 30.3389 15.1749 30.2522 15.059 30.1046L14.8329 29.8634C14.7451 29.7709 14.6374 29.6807 14.5121 29.5964C14.3926 29.4968 14.2462 29.4242 14.0951 29.3446C13.9476 29.2626 13.7719 29.2146 13.6044 29.1443C13.2519 29.0413 12.8655 28.9675 12.4767 28.9605C12.2823 28.9605 12.0867 28.9546 11.8958 28.9862C11.7049 29.0073 11.5187 29.0389 11.343 29.0881C11.1603 29.1256 10.9976 29.2006 10.8359 29.2497C10.6837 29.3329 10.5256 29.3821 10.4038 29.4781C10.2808 29.5648 10.1579 29.6339 10.0677 29.7217L9.82877 29.9512C9.7058 30.0953 9.63672 30.1773 9.63672 30.1773Z" fill="white"/>
<path d="M43.8595 34.7905C43.8209 36.2041 42.1122 37.3002 40.0487 37.244C37.9852 37.1843 36.3468 35.9898 36.3854 34.5774C36.4241 33.1639 38.1316 32.0653 40.1939 32.1227C42.2598 32.1813 43.9005 33.377 43.8595 34.7905Z" fill="#242C33"/>
<path d="M39.8802 36.46C39.838 36.46 39.7959 36.4588 39.7537 36.4576C38.072 36.4096 36.7334 35.4341 36.7662 34.2793C36.7978 33.1586 38.1188 32.2779 39.7432 32.2779C39.7865 32.2779 39.831 32.2791 39.8755 32.2803C41.5596 32.3283 42.8958 33.3015 42.8642 34.4538C42.8314 35.5781 41.508 36.46 39.8802 36.46Z" fill="#2F373F"/>
<path d="M37.0605 34.07C37.0605 34.07 37.1168 33.9728 37.2093 33.8042L37.4224 33.5301C37.5044 33.4142 37.618 33.3217 37.7468 33.2198C37.8686 33.1039 38.0244 33.0324 38.1789 32.9294C38.3429 32.8568 38.5127 32.7549 38.7048 32.7068C38.8898 32.6471 39.0877 32.5944 39.2915 32.571C39.4929 32.5382 39.7002 32.5382 39.9075 32.5324C40.1148 32.5464 40.3244 32.5569 40.5223 32.6038C40.7273 32.6296 40.9182 32.7092 41.1032 32.7666C41.2836 32.8474 41.4616 32.9212 41.6127 33.0266C41.7649 33.1285 41.9113 33.2233 42.0272 33.3404C42.1561 33.4435 42.2544 33.5571 42.3317 33.6695L42.525 33.9599C42.6175 34.1321 42.6655 34.2305 42.6655 34.2305C42.6655 34.2305 42.5987 34.145 42.4828 33.9974L42.2568 33.755C42.1689 33.6625 42.06 33.5735 41.9359 33.488C41.8176 33.3896 41.6724 33.3158 41.519 33.2374C41.3714 33.1554 41.1981 33.1062 41.0283 33.0359C40.6746 32.934 40.2881 32.8603 39.9005 32.8521C39.7061 32.8521 39.5105 32.8474 39.3196 32.879C39.1287 32.8989 38.9425 32.9305 38.7668 32.9809C38.5841 33.0172 38.4214 33.0922 38.2586 33.1413C38.1075 33.2245 37.9494 33.2748 37.8299 33.3709C37.7046 33.4575 37.5829 33.5255 37.4915 33.6133L37.2526 33.8428C37.1296 33.9881 37.0605 34.07 37.0605 34.07Z" fill="white"/>
<path d="M16.9221 35.6383C11.453 35.9182 6.80599 38.1784 5.80117 42.6626C5.65713 43.3009 5.60911 45.2766 5.71686 45.9371C6.56826 51.1404 10.9002 55.4044 17.1481 55.0847C23.3972 54.7696 28.4119 50.159 28.3463 44.787C28.3428 44.3139 28.4061 42.6849 28.3276 42.234C27.4856 37.5613 22.6208 35.3479 16.9221 35.6383Z" fill="#B04F25"/>
<path d="M17.1506 54.533C10.9027 54.8773 5.7849 50.4423 5.71932 44.6218C5.65725 38.8061 10.6743 33.8113 16.9246 33.4705C23.1737 33.1262 28.2891 37.56 28.3488 43.3781C28.4144 49.1974 23.3997 54.1922 17.1506 54.533Z" fill="#EB876B"/>
<path d="M16.5321 41.3553C15.8751 41.3928 15.3329 40.9209 15.3282 40.3013C15.32 39.6853 15.8505 39.1536 16.5099 39.1185C17.1634 39.081 17.7044 39.5542 17.7103 40.1702C17.7196 40.7862 17.1868 41.3179 16.5321 41.3553Z" fill="white"/>
<path d="M11.2471 47.4188C10.3992 47.461 9.70478 46.8543 9.69541 46.0568C9.68604 45.2628 10.3676 44.5777 11.2155 44.5309C12.0669 44.484 12.7614 45.0895 12.7708 45.8894C12.7766 46.6857 12.0985 47.3708 11.2471 47.4188Z" fill="white"/>
<path d="M23.6466 45.588C23.0083 45.6231 22.4836 45.1652 22.4766 44.5621C22.4708 43.9613 22.9825 43.446 23.6243 43.4108C24.2673 43.3734 24.7884 43.8324 24.7978 44.4332C24.8025 45.0375 24.2907 45.554 23.6466 45.588Z" fill="white"/>
<path d="M20.6163 38.6635C19.7684 38.7103 19.0739 38.1014 19.0645 37.3038C19.0552 36.5063 19.7368 35.8212 20.5847 35.7779C21.4337 35.7275 22.1305 36.3341 22.1376 37.1352C22.1469 37.9315 21.4653 38.6178 20.6163 38.6635Z" fill="white"/>
<path d="M11.5184 39.3415C10.8356 39.3813 10.2735 38.8883 10.2676 38.2477C10.2606 37.5989 10.811 37.0484 11.4961 37.011C12.1812 36.9735 12.7434 37.4654 12.7504 38.1095C12.7598 38.7536 12.2058 39.304 11.5184 39.3415Z" fill="white"/>
<path d="M16.8097 47.3573C16.4232 47.3784 16.1059 47.1008 16.1035 46.7401C16.1 46.3782 16.4104 46.0679 16.7945 46.0456C17.1798 46.0245 17.4948 46.2997 17.5019 46.6616C17.5042 47.0247 17.1938 47.335 16.8097 47.3573Z" fill="white"/>
<path d="M16.3426 51.4325C15.9573 51.4535 15.6423 51.1783 15.6388 50.8165C15.6329 50.4534 15.9433 50.1442 16.3297 50.122C16.7162 50.1044 17.0289 50.3796 17.0336 50.7415C17.0371 51.1034 16.7267 51.4137 16.3426 51.4325Z" fill="white"/>
<path d="M15.9148 35.993C15.5342 36.0141 15.2191 35.7365 15.2109 35.377C15.2098 35.014 15.5178 34.7001 15.9019 34.6825C16.2907 34.6603 16.6057 34.9355 16.6104 35.2985C16.6139 35.6616 16.3036 35.9708 15.9148 35.993Z" fill="white"/>
<path d="M19.8826 45.0007C19.4984 45.023 19.1799 44.7442 19.1799 44.3847C19.1705 44.0217 19.4844 43.709 19.8697 43.6926C20.2538 43.6668 20.57 43.9444 20.5735 44.3062C20.5794 44.6693 20.2667 44.9785 19.8826 45.0007Z" fill="white"/>
<path d="M23.9871 40.0466C23.6018 40.0688 23.2868 39.7948 23.2833 39.4282C23.2774 39.0652 23.5889 38.756 23.9719 38.7373C24.3548 38.7162 24.6722 38.9914 24.6781 39.3533C24.6816 39.7128 24.3712 40.0255 23.9871 40.0466Z" fill="white"/>
<path d="M21.2479 48.7482C20.982 48.7634 20.7618 48.5725 20.7618 48.3219C20.756 48.0736 20.9726 47.8605 21.2385 47.8441C21.5067 47.8288 21.7233 48.0197 21.7257 48.2692C21.7292 48.5198 21.5125 48.7353 21.2479 48.7482Z" fill="white"/>
<path d="M11.6005 41.3002C11.3347 41.313 11.1145 41.1245 11.1134 40.8739C11.1087 40.6209 11.3218 40.4078 11.5912 40.3961C11.8559 40.3797 12.0725 40.5682 12.076 40.8212C12.0784 41.0706 11.8652 41.2873 11.6005 41.3002Z" fill="white"/>
<path d="M38.6977 63.2285C38.529 62.9451 38.337 62.6734 38.1262 62.4193C38.0325 62.1019 37.913 61.7916 37.7678 61.4918C35.5661 56.9186 28.3064 56.8951 30.3172 59.7562C32.6547 63.0915 23.1499 64.9337 23.0586 66.9527L24.5237 69.6943L25.9899 72.4347C26.7265 72.8797 28.386 71.8854 30.1614 70.8923C32.554 69.5537 35.1586 68.2152 36.0029 70.3934C37.2713 73.6526 41.28 67.6027 38.6977 63.2285Z" fill="#B87B4D"/>
<path d="M41.6455 60.5327C39.0034 55.5918 33.7299 53.2612 29.8652 55.3283C26.9749 56.8694 28.1496 58.8767 30.0374 61.8561C30.5644 61.1827 30.692 60.4414 30.1135 59.6204C28.0266 56.6645 35.6634 56.6212 37.9389 61.3572C38.0853 61.6675 38.2094 61.9907 38.309 62.3163C38.5268 62.581 38.7236 62.8597 38.9004 63.1583C41.5764 67.68 37.303 74.0076 36.0007 70.6265C35.6365 69.6768 34.9315 69.377 34.052 69.4578C35.4702 72.5612 36.7081 74.6774 39.4333 73.2217C43.2979 71.1524 44.2887 65.4736 41.6455 60.5327Z" fill="#F4E6D1"/>
<path d="M41.6455 60.5327C39.0034 55.5918 33.7299 53.2612 29.8652 55.3283C26.9749 56.8694 28.1496 58.8767 30.0374 61.8561L30.1826 61.6441C28.488 58.954 27.5242 57.1212 30.1908 55.6936C33.874 53.7227 38.8992 55.9454 41.4195 60.6533C43.9385 65.3612 42.9911 70.7788 39.3115 72.7463C36.8006 74.0884 35.6131 72.2474 34.3131 69.4496L34.052 69.4578C35.4702 72.5612 36.7081 74.6774 39.4333 73.2217C43.2979 71.1524 44.2887 65.4736 41.6455 60.5327Z" fill="#B87B4D"/>
<path d="M36.3006 70.9414C36.173 70.8407 36.0547 70.6955 35.9505 70.5011C35.9259 70.446 35.9001 70.3945 35.8743 70.3441C35.8568 70.3055 35.8404 70.2668 35.8252 70.2258C35.7174 69.9483 35.5804 69.7305 35.4176 69.563C35.6565 69.748 35.8533 70.0186 35.9985 70.3921C36.0863 70.6193 36.1882 70.8009 36.3006 70.9414ZM30.6804 60.7211C30.6348 60.4857 30.5282 60.2421 30.3502 59.9891C30.3209 59.947 30.294 59.906 30.2694 59.8662C30.2471 59.8263 30.2237 59.7853 30.1979 59.7455C30.0867 59.5394 30.0281 59.352 30.0176 59.1822C30.0714 59.3579 30.1687 59.5488 30.3127 59.7549C30.5493 60.0922 30.6641 60.4131 30.6804 60.7211Z" fill="#F7E1B1"/>
<path d="M26.6186 72.2969C26.4523 72.2969 26.3071 72.2641 26.1876 72.1915L24.7752 69.5541L23.3652 66.9156C23.4472 65.1285 31.2164 63.4795 30.68 60.7216C30.6636 60.4136 30.5488 60.0927 30.3123 59.7554C30.1682 59.5493 30.071 59.3584 30.0172 59.1827C29.9715 58.4824 30.7315 58.103 31.8031 58.103C33.6207 58.103 36.3342 59.1944 37.5217 61.6596C37.6622 61.9501 37.777 62.2487 37.8648 62.5532C38.0686 62.8003 38.256 63.0603 38.4199 63.3367C40.4108 66.7083 38.3251 71.1187 36.7921 71.1187C36.6187 71.1187 36.4525 71.0625 36.3002 70.9419C36.1878 70.8014 36.0859 70.6198 35.998 70.3926C35.8528 70.0191 35.6561 69.7485 35.4172 69.5635C35.1092 69.2485 34.711 69.1173 34.2519 69.1173C33.1218 69.1173 31.6239 69.9125 30.2034 70.7065C28.7816 71.5017 27.4384 72.2969 26.6186 72.2969Z" fill="#E2C6A9"/>
<path d="M35.9518 70.5029C35.9248 70.4537 35.9002 70.401 35.8756 70.346C35.9014 70.3963 35.9272 70.4479 35.9518 70.5029ZM30.2707 59.868C30.2449 59.827 30.2215 59.7872 30.1992 59.7474C30.225 59.7872 30.2484 59.8282 30.2707 59.868Z" fill="#F4E6D1"/>
<path d="M65.3023 19.6044C65.1453 19.3139 64.9638 19.0352 64.7624 18.7717C64.6828 18.452 64.5762 18.1369 64.4415 17.8301C62.4319 13.1702 55.1803 12.8458 57.0693 15.7877C59.2675 19.2167 49.6948 20.6654 49.5215 22.6785L50.8706 25.4775L52.2233 28.2765C52.9388 28.7496 54.6287 27.8338 56.4369 26.918C58.8881 25.6754 61.5559 24.434 62.3124 26.6521C63.4449 29.9605 67.6996 24.0815 65.3023 19.6044Z" fill="#B87B4D"/>
<path d="M68.3585 17.0383C65.9238 11.9931 60.7521 9.44592 56.8043 11.3513C53.8531 12.7719 54.9446 14.8249 56.7059 17.8815C57.2599 17.228 57.4203 16.4949 56.8757 15.6493C54.9118 12.6103 62.5439 12.8831 64.6227 17.7105C64.755 18.0255 64.8674 18.3534 64.9506 18.6825C65.1602 18.9554 65.3429 19.2435 65.5069 19.548C67.9943 24.1762 63.4633 30.3222 62.3015 26.8897C61.9771 25.9259 61.2862 25.598 60.4031 25.6413C61.6925 28.8021 62.8414 30.9675 65.6228 29.6254C69.5706 27.7177 70.7968 22.0846 68.3585 17.0383Z" fill="#F4E6D1"/>
<path d="M68.3585 17.0383C65.9238 11.9931 60.7521 9.44592 56.8043 11.3513C53.8531 12.7719 54.9446 14.8249 56.7059 17.8815L56.8605 17.6742C55.2795 14.9174 54.3918 13.0448 57.1147 11.7284C60.8775 9.91203 65.8043 12.3421 68.129 17.1495C70.4513 21.9593 69.2814 27.33 65.5221 29.1453C62.9574 30.382 61.846 28.4941 60.6643 25.6448L60.4031 25.6413C61.6925 28.8021 62.8414 30.9675 65.6228 29.6254C69.5706 27.7177 70.7968 22.0846 68.3585 17.0383Z" fill="#B87B4D"/>
<path d="M62.5943 27.2158C62.4702 27.1104 62.3577 26.9594 62.2605 26.7591C62.2383 26.7041 62.216 26.6513 62.1914 26.601C62.1762 26.5612 62.161 26.5214 62.1469 26.4792C62.0497 26.1958 61.9209 25.9721 61.7651 25.7976C61.997 25.992 62.1844 26.2719 62.3144 26.6537C62.394 26.8844 62.4877 27.0718 62.5943 27.2158ZM57.3992 16.7683C57.3629 16.5306 57.2657 16.2835 57.0994 16.0246C57.076 15.9883 57.0537 15.9509 57.0327 15.9157C57.0081 15.8642 56.9811 15.8127 56.9507 15.7611C56.8535 15.5574 56.8055 15.3735 56.8008 15.2084C56.8476 15.3852 56.9366 15.5784 57.0713 15.7892C57.2926 16.1347 57.3945 16.4603 57.3992 16.7683Z" fill="#F7E1B1"/>
<path d="M52.9148 28.1699C52.7251 28.1699 52.5623 28.1313 52.4323 28.0458L51.13 25.3534L49.8301 22.6563C49.987 20.8739 57.8229 19.5482 57.3943 16.7691C57.3896 16.4611 57.2877 16.1355 57.0664 15.7901C56.9317 15.5793 56.8427 15.386 56.7959 15.2092C56.7795 14.5452 57.4692 14.1973 58.4471 14.1973C60.2635 14.1973 63.0719 15.3954 64.1938 17.9918C64.3203 18.2881 64.4234 18.5902 64.5007 18.8982C64.6927 19.1535 64.8684 19.4205 65.0195 19.7039C66.8569 23.1306 64.6377 27.4134 63.1047 27.4122C62.9208 27.4122 62.7463 27.3501 62.5894 27.2166C62.4828 27.0726 62.3891 26.8852 62.3095 26.6545C62.1795 26.2727 61.9921 25.9928 61.7602 25.7984C61.444 25.4482 61.0142 25.3054 60.513 25.3054C59.3899 25.3054 57.9014 26.0209 56.4879 26.7376C55.0743 27.4532 53.7357 28.1699 52.9148 28.1699Z" fill="#E2C6A9"/>
<path d="M62.259 26.7617C62.2344 26.7114 62.2122 26.6586 62.19 26.6036C62.2146 26.654 62.2368 26.7067 62.259 26.7617ZM57.0312 15.9183C57.0007 15.8656 56.9738 15.8141 56.9492 15.7638C56.9797 15.8153 57.0066 15.8668 57.0312 15.9183Z" fill="#F4E6D1"/>
<path d="M37.6362 86.7744C36.7274 86.7744 35.732 86.5531 35.2694 86.4406C33.3394 85.9675 31.3919 85.2344 29.5134 84.5797C26.2975 83.4555 23.6835 81.8522 20.9396 79.8812C18.3796 78.0426 15.8125 76.3222 13.5066 74.254C12.6551 73.4928 11.99 72.8627 11.3025 71.9399C10.5893 70.9819 9.33622 70.1012 8.9802 68.9371C8.7448 68.1712 8.94741 67.3866 9.77539 67.3866C9.84917 67.3866 9.92881 67.3936 10.0131 67.4065C10.9219 67.5494 12.1879 69.0742 12.7254 69.7967C14.5383 72.2256 16.9777 73.7832 19.0986 75.8772C19.9512 76.7204 20.9596 77.3352 21.9573 77.9711C22.9727 78.6199 23.8499 79.517 24.8699 80.1389C25.9204 80.7806 27.2086 81.0828 28.2942 81.6332C29.5426 82.2621 30.8391 82.5162 32.0828 83.0503C33.5479 83.6791 34.8794 84.3514 36.4569 84.5247C37.1186 84.5961 39.8836 85.0259 39.3847 86.0776C39.1294 86.6116 38.415 86.7744 37.6362 86.7744Z" fill="#EBB25A"/>
<path d="M81.0847 19.7344C81.0226 19.7344 80.9559 19.7309 80.8868 19.7215C79.971 19.6044 78.664 18.1159 78.1065 17.4097C76.2222 15.0335 73.7406 13.5439 71.5658 11.5108C70.6875 10.6934 69.6628 10.1066 68.6474 9.49766C67.6133 8.87931 66.7116 8.00682 65.6751 7.41424C64.6047 6.80174 63.3107 6.53708 62.2098 6.0171C60.945 5.42217 59.6416 5.20551 58.3838 4.70661C56.9011 4.11988 55.5497 3.48631 53.9675 3.35631C53.307 3.30361 50.5279 2.95229 50.9987 1.88774C51.2552 1.30804 52.0515 1.13823 52.8947 1.13823C53.7543 1.13823 54.6643 1.31388 55.1011 1.40875C57.0464 1.82566 59.0126 2.50374 60.9099 3.10686C64.1527 4.13862 66.8123 5.66693 69.6124 7.55945C72.2228 9.32667 74.8344 10.9733 77.2001 12.9759C78.0726 13.7137 78.7542 14.3238 79.465 15.2267C80.2064 16.166 81.4817 17.0104 81.8728 18.1627C82.1352 18.9333 81.9419 19.7344 81.0847 19.7344Z" fill="#EBB25A"/>
<path d="M51.3092 26.3829C50.1416 27.417 50.3442 27.8737 50.8853 29.0952C51.1933 29.7897 51.5423 30.5743 51.5798 31.5381C51.6161 32.5231 51.1675 33.18 50.8373 33.659C50.4449 34.2341 50.3512 34.3722 51.2061 35.3443C51.5095 35.6851 51.616 35.7389 52.8176 35.1733C53.5648 34.8219 54.4923 34.3828 55.5791 34.4167C56.6038 34.4472 57.4541 35.0374 58.2047 35.5609C59.541 36.4884 59.9649 36.6454 60.766 35.9404C61.3504 35.4239 61.3726 35.2635 60.4521 33.9846C59.8642 33.1683 59.2002 32.2467 59.2599 31.072C59.3114 30.0684 59.7576 29.21 60.15 28.4511C60.7683 27.2612 60.8281 26.972 60.5119 26.6159C59.7951 25.8032 59.4742 25.8898 58.1602 26.6979C57.3697 27.1816 56.4715 27.732 55.3835 27.6723C54.2382 27.6137 53.4922 26.9146 52.9464 26.4051C52.2039 25.7071 52.1419 25.6498 51.3092 26.3829ZM62.1819 37.5448C60.0376 39.4408 58.1263 38.1116 56.9821 37.3199C56.4516 36.9522 55.9047 36.5681 55.5135 36.5564C54.9385 36.5411 54.3541 36.8175 53.7287 37.1091C52.6572 37.6162 51.0328 38.381 49.6041 36.759C47.7912 34.7095 48.3791 33.4611 49.07 32.4504C49.3183 32.0862 49.4495 31.8848 49.4401 31.6201C49.4179 31.0674 49.1801 30.531 48.9283 29.963C48.3439 28.6502 47.5464 26.8502 49.8922 24.7773C52.1829 22.7571 53.6315 24.1133 54.4103 24.8417C54.8565 25.2598 55.1493 25.5186 55.4971 25.5362C55.9222 25.5584 56.4645 25.2247 57.0418 24.871C58.2024 24.1589 60.1488 22.9644 62.1186 25.2001C63.4642 26.7237 62.6468 28.2918 62.053 29.4383C61.7322 30.0567 61.4288 30.6411 61.3995 31.1821C61.3785 31.6037 61.7895 32.1776 62.1924 32.7315C62.929 33.7597 64.3063 35.6698 62.1819 37.5448Z" fill="#86C33E"/>
<path d="M18.929 46.2875C19.2593 45.8085 19.7078 45.1515 19.6715 44.1666C19.6341 43.2028 19.285 42.4182 18.977 41.7237C18.436 40.5022 18.2334 40.0455 19.401 39.0114C19.9034 38.571 20.1236 38.42 20.3871 38.5207C19.7558 37.9351 19.6469 37.9199 18.8693 38.6097C17.6982 39.6414 17.902 40.1005 18.4454 41.322C18.751 42.0141 19.1024 42.8011 19.1375 43.7649C19.175 44.7487 18.7264 45.4057 18.395 45.8858C18.0039 46.4608 17.9114 46.5979 18.7663 47.5687C18.9021 47.721 18.9993 47.81 19.1715 47.8193C18.4653 46.9937 18.559 46.8321 18.929 46.2875Z" fill="#86C33E"/>
<path d="M21.4258 39.3815C21.9317 39.8136 22.5793 40.2493 23.4741 40.2973C24.562 40.357 25.4603 39.8066 26.2508 39.3229C27.1256 38.7842 27.5624 38.5734 27.9676 38.7315C27.3235 38.0464 26.9651 38.1541 25.7167 38.9177C24.9262 39.4049 24.0303 39.9553 22.94 39.8956C22.3346 39.864 21.8404 39.652 21.4258 39.3815Z" fill="#86C33E"/>
<path d="M21.9697 37.0633C22.2555 37.3326 22.4757 37.5235 22.6911 37.6406L22.5037 37.4673C22.2777 37.2577 21.9943 36.9942 21.6523 36.7752C21.7706 36.8759 21.8749 36.9766 21.9697 37.0633Z" fill="#86C33E"/>
<path d="M71.3438 35.5154C76.8117 35.7941 81.4599 38.0555 82.4635 42.5397C82.6076 43.178 82.6579 45.1537 82.5478 45.813C81.6988 51.0174 77.3668 55.2803 71.1189 54.9617C64.8699 54.6455 59.8528 50.036 59.9195 44.663C59.9219 44.191 59.8598 42.562 59.9383 42.1111C60.7791 37.4383 65.6451 35.2249 71.3438 35.5154Z" fill="#B04F25"/>
<path d="M71.1141 54.4128C77.362 54.7582 82.4774 50.322 82.543 44.5028C82.6063 38.6858 77.5904 33.691 71.339 33.3502C65.0911 33.0059 59.9744 37.4409 59.9147 43.2579C59.848 49.0783 64.865 54.072 71.1141 54.4128Z" fill="#EB876B"/>
<path d="M71.7329 41.2324C72.3899 41.2687 72.9322 40.7968 72.9368 40.1772C72.945 39.5612 72.4145 39.0295 71.7552 38.9956C71.1017 38.9581 70.5607 39.4301 70.5548 40.0461C70.5454 40.6621 71.0759 41.1949 71.7329 41.2324Z" fill="white"/>
<path d="M77.0217 47.2996C77.8684 47.3429 78.5629 46.7351 78.5723 45.9387C78.5828 45.1436 77.8989 44.4584 77.0533 44.4116C76.2019 44.3648 75.5075 44.9714 75.4981 45.7701C75.4922 46.5665 76.1703 47.2516 77.0217 47.2996Z" fill="white"/>
<path d="M64.6169 45.4699C65.2563 45.5039 65.781 45.046 65.7857 44.4428C65.7939 43.8432 65.2798 43.3268 64.638 43.2916C63.9974 43.2553 63.4762 43.7144 63.4669 44.314C63.4598 44.9183 63.9728 45.4348 64.6169 45.4699Z" fill="white"/>
<path d="M67.6468 38.5414C68.4947 38.5883 69.1891 37.9781 69.1985 37.1806C69.2079 36.3842 68.5263 35.6991 67.6784 35.6546C66.827 35.6054 66.1325 36.2109 66.1231 37.0119C66.1138 37.8095 66.7977 38.4946 67.6468 38.5414Z" fill="white"/>
<path d="M76.7517 39.2232C77.4333 39.2642 77.9966 38.77 78.0024 38.1294C78.0083 37.4818 77.459 36.9313 76.7739 36.8939C76.0888 36.8564 75.5243 37.3471 75.5196 37.9912C75.5103 38.6353 76.063 39.1857 76.7517 39.2232Z" fill="white"/>
<path d="M71.4531 47.2352C71.8396 47.2563 72.1546 46.9776 72.1593 46.618C72.1628 46.255 71.8525 45.9458 71.4683 45.9224C71.083 45.9013 70.7657 46.1765 70.7598 46.5396C70.7563 46.9026 71.0666 47.2118 71.4531 47.2352Z" fill="white"/>
<path d="M71.9293 51.3093C72.3146 51.3315 72.6296 51.0563 72.6331 50.6933C72.639 50.3302 72.3286 50.0211 71.941 50C71.5557 49.9812 71.2407 50.2565 71.2383 50.6195C71.2348 50.9814 71.5428 51.2905 71.9293 51.3093Z" fill="white"/>
<path d="M72.343 35.8759C72.7247 35.8959 73.0398 35.6195 73.0456 35.2588C73.0491 34.8969 72.7411 34.583 72.3547 34.5643C71.9682 34.5432 71.652 34.8184 71.6485 35.1815C71.645 35.5434 71.9553 35.8537 72.343 35.8759Z" fill="white"/>
<path d="M68.3786 44.8806C68.7627 44.9028 69.0789 44.6241 69.0789 44.2646C69.0883 43.9015 68.7768 43.5888 68.3915 43.5724C68.0073 43.5479 67.69 43.8242 67.6876 44.1861C67.6806 44.5492 67.9944 44.8595 68.3786 44.8806Z" fill="white"/>
<path d="M64.2828 39.9235C64.6669 39.9458 64.9831 39.6706 64.9866 39.304C64.9925 38.941 64.6786 38.6318 64.298 38.6131C63.9127 38.592 63.5977 38.8672 63.5918 39.2291C63.5883 39.5898 63.8986 39.9013 64.2828 39.9235Z" fill="white"/>
<path d="M67.0192 48.624C67.2839 48.6404 67.5029 48.4495 67.5029 48.1989C67.5099 47.9495 67.2933 47.7363 67.0286 47.7211C66.7592 47.7047 66.5438 47.8956 66.5391 48.145C66.5379 48.3957 66.7522 48.6123 67.0192 48.624Z" fill="white"/>
<path d="M76.6642 41.18C76.9289 41.1929 77.1479 41.0055 77.1514 40.7549C77.1549 40.502 76.9429 40.2888 76.6736 40.2759C76.4089 40.2607 76.1922 40.4481 76.1875 40.701C76.184 40.9517 76.3995 41.1683 76.6642 41.18Z" fill="white"/>
<path d="M79.9365 44.0332C80.2023 44.0496 80.4225 43.8587 80.4237 43.6081C80.4284 43.3586 80.2117 43.1455 79.9459 43.1303C79.6824 43.1139 79.4611 43.3059 79.4611 43.5542C79.4552 43.8048 79.6718 44.018 79.9365 44.0332Z" fill="white"/>
<path d="M79.646 36.4473C79.3603 36.7154 79.1389 36.9075 78.9258 37.0234L79.112 36.8501C79.338 36.6405 79.6226 36.3782 79.9634 36.158C79.8463 36.2599 79.7409 36.3594 79.646 36.4473Z" fill="#86C33E"/>
</svg>
